# xmcd
#
# Track frame offsets:
# 150
# 17427
# 38018
# 56299
# 73250
# 84945
# 95168
# 104927
# 117270
# 130054
# 144740
#
# Disc length: 2073 seconds
#
#
# Revision: 0
# Processed by: cddbd v1.5.2PL0 Copyright (c) Steve Scherf et al.
# Submitted via: FreeRIP 2.944 
#
DISCID=9708170b
DTITLE=Doc Watson - Rambling hobo - cd2
DYEAR=2009
DGENRE=Acoustic
TTITLE0=Doc Watson - New River train
TTITLE1=Doc Watson - Mountain dew
TTITLE2=Doc Watson - On the banks of old Tennessee
TTITLE3=Doc Watson - What does the deep sea say
TTITLE4=Doc Watson - We prayed to God
TTITLE5=Doc Watson - Oklahoma morning
TTITLE6=Doc Watson - Sugar in the gourd
TTITLE7=Doc Watson - Reuben's train
TTITLE8=Doc Watson - Sweet Suzie
TTITLE9=Doc Watson - The cabbage head song
TTITLE10=Doc Watson - Watson's farm
EXTD=CD3/3
EXTT0=
EXTT1=
EXTT2=
EXTT3=
EXTT4=
EXTT5=
EXTT6=
EXTT7=
EXTT8=
EXTT9=
EXTT10=
PLAYORDER=
